# xmcd
#
# Track frame offsets:
#  150
#  23474
#  39525
#  58799
#  76641
#  92293
#  111365
#  132003
#  153301
#  172015
#  188009
#
# Disc length: 2818 seconds
#
# Revision: 0
# Processed by: cddbd v1.5.1PL2 Copyright (c) Steve Scherf et al.
# Submitted via: Collectorz.com_Music_Collector 6.9
#
DISCID=780b000b
DTITLE=Kenny Chesney - The Road And The Radio
DYEAR=2005
DGENRE=Country
TTITLE0=The Road And The Radio
TTITLE1=Living In The Fast Foward
TTITLE2=Who You'd Be Today
TTITLE3=You Save Me
TTITLE4=Summertime
TTITLE5=In A Small Town
TTITLE6=Beer In Mexico
TTITLE7=Freedom
TTITLE8=Tequila Loves Me
TTITLE9=Somebody Take Me Home
TTITLE10=Like Me
EXTD=
EXTT0=
EXTT1=
EXTT2=
EXTT3=
EXTT4=
EXTT5=
EXTT6=
EXTT7=
EXTT8=
EXTT9=
EXTT10=
PLAYORDER=
